<svg width="634" height="553" viewBox="0 0 634 553" fill="none" xmlns="http://www.w3.org/2000/svg">
<path d="M1 42.8963C6.05263 42.8963 16.1579 34.517 16.1579 1H614.895C614.895 14.9654 618.116 42.8963 631 42.8963V276.448V510C625.631 510 614.895 507.499 614.895 551H315.526H16.1579C16.1579 532.875 13.1263 510 1 510V276.448V42.8963Z" fill="#FF4500" stroke="black"/>
<path d="M37.5 285.5C42.8848 285.5 47.25 281.135 47.25 275.75C47.25 270.365 42.8848 266 37.5 266C32.1152 266 27.75 270.365 27.75 275.75C27.75 281.135 32.1152 285.5 37.5 285.5Z" fill="#176FD7" stroke="black"/>
<path d="M592.5 285.5C597.885 285.5 602.25 281.135 602.25 275.75C602.25 270.365 597.885 266 592.5 266C587.115 266 582.75 270.365 582.75 275.75C582.75 281.135 587.115 285.5 592.5 285.5Z" fill="#176FD7" stroke="black"/>
<path d="M122 552V452H322H522V552H122Z" fill="#FFFEFE" stroke="black"/>
</svg>
