<svg width="634" height="553" viewBox="0 0 634 553" fill="none" xmlns="http://www.w3.org/2000/svg">
<path d="M614.893 550C614.893 506.657 625.63 509.149 630.998 509.149V275H0.998413V509.149C13.1247 509.149 16.1563 531.941 16.1563 550H165.841H315.525H465.209H614.893Z" fill="#FFFF00" stroke="black"/>
<path d="M16.1563 1C16.1563 34.3956 6.05104 42.7445 0.998413 42.7445V276L630.998 275.45V42.7445C618.115 42.7445 614.893 14.9148 614.893 1H16.1563Z" fill="#FFFEFE" stroke="black"/>
<path d="M591.567 285.5C596.943 285.5 601.301 281.135 601.301 275.75C601.301 270.365 596.943 266 591.567 266C586.191 266 581.832 270.365 581.832 275.75C581.832 281.135 586.191 285.5 591.567 285.5Z" fill="#176FD7" stroke="black"/>
<path d="M37.4409 285.5C42.8172 285.5 47.1756 281.135 47.1756 275.75C47.1756 270.365 42.8172 266 37.4409 266C32.0646 266 27.7063 270.365 27.7063 275.75C27.7063 281.135 32.0646 285.5 37.4409 285.5Z" fill="#176FD7" stroke="black"/>
<path d="M458.488 547.722H178.488V511.851V470H315H458.488V508.861V547.722Z" fill="white" stroke="black"/>
</svg>
